HIERARCHY
ROOT Hips
{
  OFFSET 76.4002 57.6547 37.3602
  CHANNELS 6 Xposition Yposition Zposition Zrotation Xrotation Yrotation
  JOINT LeftUpLeg
  {
    OFFSET 8.02104 -5.9144 -1.45605
    CHANNELS 6 Xposition Yposition Zposition Zrotation Xrotation Yrotation
    JOINT LeftLeg
    {
      OFFSET -1.92322e-05 -41 0
      CHANNELS 6 Xposition Yposition Zposition Zrotation Xrotation Yrotation
      JOINT LeftFoot
      {
        OFFSET -1.65404e-05 -38 -2.7386
        CHANNELS 6 Xposition Yposition Zposition Zrotation Xrotation Yrotation
        JOINT LeftToeBase
        {
          OFFSET 0.224772 -4.5 8.67194
          CHANNELS 6 Xposition Yposition Zposition Zrotation Xrotation Yrotation
          End Site
          {
            OFFSET 0 0 7.5
          }
        }
      }
    }
  }
  JOINT RightUpLeg
  {
    OFFSET -8.02104 -5.9144 -1.45605
    CHANNELS 6 Xposition Yposition Zposition Zrotation Xrotation Yrotation
    JOINT RightLeg
    {
      OFFSET -1.92322e-05 -41 0
      CHANNELS 6 Xposition Yposition Zposition Zrotation Xrotation Yrotation
      JOINT RightFoot
      {
        OFFSET -1.6503e-05 -38 -2.81823
        CHANNELS 6 Xposition Yposition Zposition Zrotation Xrotation Yrotation
        JOINT RightToeBase
        {
          OFFSET -0.202579 -4.5 8.67194
          CHANNELS 6 Xposition Yposition Zposition Zrotation Xrotation Yrotation
          End Site
          {
            OFFSET 0 0 7.5
          }
        }
      }
    }
  }
  JOINT Spine
  {
    OFFSET 0 8.8 0
    CHANNELS 6 Xposition Yposition Zposition Zrotation Xrotation Yrotation
    JOINT Spine1
    {
      OFFSET 0 8.8 -1.00265
      CHANNELS 6 Xposition Yposition Zposition Zrotation Xrotation Yrotation
      JOINT Spine2
      {
        OFFSET 0 8.8 -1.42152
        CHANNELS 6 Xposition Yposition Zposition Zrotation Xrotation Yrotation
        JOINT Neck
        {
          OFFSET 0 18 -2.54888
          CHANNELS 6 Xposition Yposition Zposition Zrotation Xrotation Yrotation
          JOINT Head
          {
            OFFSET 0 9.32455 2.00943
            CHANNELS 6 Xposition Yposition Zposition Zrotation Xrotation Yrotation
            JOINT L_eye_middle
            {
              OFFSET 3.31029 5.95539 8.75316
              CHANNELS 6 Xposition Yposition Zposition Zrotation Xrotation Yrotation
              JOINT L_eye_end
              {
                OFFSET -0.00393679 0.0142683 1.5254
                CHANNELS 6 Xposition Yposition Zposition Zrotation Xrotation Yrotation
                End Site
                {
                  OFFSET 0 0 0
                }
              }
            }
            JOINT R_eye_middle
            {
              OFFSET -3.17468 5.97581 8.75332
              CHANNELS 6 Xposition Yposition Zposition Zrotation Xrotation Yrotation
              JOINT R_eye_end
              {
                OFFSET 0.00393 0.014 1.5254
                CHANNELS 6 Xposition Yposition Zposition Zrotation Xrotation Yrotation
                End Site
                {
                  OFFSET 0 0 0
                }
              }
            }
            JOINT Head_End
            {
              OFFSET -0.16006 14.4074 2.97933
              CHANNELS 6 Xposition Yposition Zposition Zrotation Xrotation Yrotation
              End Site
              {
                OFFSET 0 0 0
              }
            }
            JOINT jawTop
            {
              OFFSET -0.0268362 1.89801 2.15578
              CHANNELS 6 Xposition Yposition Zposition Zrotation Xrotation Yrotation
              JOINT jawEnd
              {
                OFFSET -0.231067 -6.43568 8.93613
                CHANNELS 6 Xposition Yposition Zposition Zrotation Xrotation Yrotation
                End Site
                {
                  OFFSET 0 0 0
                }
              }
            }
          }
        }
        JOINT LeftShoulder
        {
          OFFSET 6.25375 13.4141 -2.24536
          CHANNELS 6 Xposition Yposition Zposition Zrotation Xrotation Yrotation
          JOINT LeftArm
          {
            OFFSET 0 12 -2.47116
            CHANNELS 6 Xposition Yposition Zposition Zrotation Xrotation Yrotation
            JOINT LeftForeArm
            {
              OFFSET 0 26 1.21961e-05
              CHANNELS 6 Xposition Yposition Zposition Zrotation Xrotation Yrotation
              JOINT LeftHand
              {
                OFFSET 0 23 1.07888e-05
                CHANNELS 6 Xposition Yposition Zposition Zrotation Xrotation Yrotation
                JOINT LeftWrist_End
                {
                  OFFSET 0 10 0
                  CHANNELS 6 Xposition Yposition Zposition Zrotation Xrotation Yrotation
                  JOINT LeftHandIndex1
                  {
                    OFFSET 0.197285 1.2193 2.40532
                    CHANNELS 6 Xposition Yposition Zposition Zrotation Xrotation Yrotation
                    JOINT LeftHandIndex2
                    {
                      OFFSET 0.226043 2.66191 -0.146383
                      CHANNELS 6 Xposition Yposition Zposition Zrotation Xrotation Yrotation
                      JOINT LeftHandIndex3
                      {
                        OFFSET 0.246094 2.71596 -0.189681
                        CHANNELS 6 Xposition Yposition Zposition Zrotation Xrotation Yrotation
                        JOINT LeftHandIndex4
                        {
                          OFFSET 0.183211 2.25424 -0.102542
                          CHANNELS 6 Xposition Yposition Zposition Zrotation Xrotation Yrotation
                          End Site
                          {
                            OFFSET 0 0 0
                          }
                        }
                      }
                    }
                  }
                  JOINT LeftHandMiddle1
                  {
                    OFFSET -0.398519 1.7179 -0.0617463
                    CHANNELS 6 Xposition Yposition Zposition Zrotation Xrotation Yrotation
                    JOINT LeftHandMiddle2
                    {
                      OFFSET -0.0804033 3.32192 -0.349908
                      CHANNELS 6 Xposition Yposition Zposition Zrotation Xrotation Yrotation
                      JOINT LeftHandMiddle3
                      {
                        OFFSET 0.0957527 2.2119 -0.214092
                        CHANNELS 6 Xposition Yposition Zposition Zrotation Xrotation Yrotation
                        JOINT LeftHandMiddle4
                        {
                          OFFSET 0.131484 2.41694 -0.230538
                          CHANNELS 6 Xposition Yposition Zposition Zrotation Xrotation Yrotation
                          End Site
                          {
                            OFFSET 0 0 0
                          }
                        }
                      }
                    }
                  }
                  JOINT LeftHandRing1
                  {
                    OFFSET -0.419868 1.24945 -1.87464
                    CHANNELS 6 Xposition Yposition Zposition Zrotation Xrotation Yrotation
                    JOINT LeftHandRing2
                    {
                      OFFSET -0.213007 2.86703 -0.801583
                      CHANNELS 6 Xposition Yposition Zposition Zrotation Xrotation Yrotation
                      JOINT LeftHandRing3
                      {
                        OFFSET -0.0894973 2.05156 -0.52494
                        CHANNELS 6 Xposition Yposition Zposition Zrotation Xrotation Yrotation
                        JOINT LeftHandRing4
                        {
                          OFFSET -0.00901887 2.25558 -0.50804
                          CHANNELS 6 Xposition Yposition Zposition Zrotation Xrotation Yrotation
                          End Site
                          {
                            OFFSET 0 0 0
                          }
                        }
                      }
                    }
                  }
                  JOINT LeftHandPinky1
                  {
                    OFFSET -0.329974 0.479519 -4.13684
                    CHANNELS 6 Xposition Yposition Zposition Zrotation Xrotation Yrotation
                    JOINT LeftHandPinky2
                    {
                      OFFSET -0.160157 2.50079 -0.988666
                      CHANNELS 6 Xposition Yposition Zposition Zrotation Xrotation Yrotation
                      JOINT LeftHandPinky3
                      {
                        OFFSET -0.11602 1.97797 -0.579049
                        CHANNELS 6 Xposition Yposition Zposition Zrotation Xrotation Yrotation
                        JOINT LeftHandPinky4
                        {
                          OFFSET -0.0843264 1.42031 -0.435157
                          CHANNELS 6 Xposition Yposition Zposition Zrotation Xrotation Yrotation
                          End Site
                          {
                            OFFSET 0 0 0
                          }
                        }
                      }
                    }
                  }
                  JOINT LeftHandThumb1
                  {
                    OFFSET 3.1962 -4.98237 3.66918
                    CHANNELS 6 Xposition Yposition Zposition Zrotation Xrotation Yrotation
                    JOINT LeftHandThumb2
                    {
                      OFFSET 1.03093 2.58404 0.743119
                      CHANNELS 6 Xposition Yposition Zposition Zrotation Xrotation Yrotation
                      JOINT LeftHandThumb3
                      {
                        OFFSET 1.05913 2.62487 0.715956
                        CHANNELS 6 Xposition Yposition Zposition Zrotation Xrotation Yrotation
                        JOINT LeftHandThumb4
                        {
                          OFFSET 0.712656 2.0705 0.965941
                          CHANNELS 6 Xposition Yposition Zposition Zrotation Xrotation Yrotation
                          End Site
                          {
                            OFFSET 0 0 0
                          }
                        }
                      }
                    }
                  }
                }
              }
            }
          }
        }
        JOINT RightShoulder
        {
          OFFSET -6.25373 13.4141 -2.24536
          CHANNELS 6 Xposition Yposition Zposition Zrotation Xrotation Yrotation
          JOINT RightArm
          {
            OFFSET 0 12 -2.34387
            CHANNELS 6 Xposition Yposition Zposition Zrotation Xrotation Yrotation
            JOINT RightForeArm
            {
              OFFSET 0 26 -1.21961e-05
              CHANNELS 6 Xposition Yposition Zposition Zrotation Xrotation Yrotation
              JOINT RightHand
              {
                OFFSET 0 23 -1.07888e-05
                CHANNELS 6 Xposition Yposition Zposition Zrotation Xrotation Yrotation
                JOINT RightWrist_End
                {
                  OFFSET 0 8 0
                  CHANNELS 6 Xposition Yposition Zposition Zrotation Xrotation Yrotation
                  JOINT RightIndex1
                  {
                    OFFSET 0.334777 2.36779 1.95209
                    CHANNELS 6 Xposition Yposition Zposition Zrotation Xrotation Yrotation
                    JOINT RightIndex2
                    {
                      OFFSET -0.269286 2.80845 -0.111098
                      CHANNELS 6 Xposition Yposition Zposition Zrotation Xrotation Yrotation
                      JOINT RightIndex3
                      {
                        OFFSET -0.301989 3.12165 -0.129913
                        CHANNELS 6 Xposition Yposition Zposition Zrotation Xrotation Yrotation
                        JOINT RightIndex4
                        {
                          OFFSET -0.183845 1.90563 -0.0780892
                          CHANNELS 6 Xposition Yposition Zposition Zrotation Xrotation Yrotation
                          End Site
                          {
                            OFFSET 0 0 0
                          }
                        }
                      }
                    }
                  }
                  JOINT RightMiddle1
                  {
                    OFFSET 0.47098 2.72281 -0.481065
                    CHANNELS 6 Xposition Yposition Zposition Zrotation Xrotation Yrotation
                    JOINT RightMiddle2
                    {
                      OFFSET -0.273289 3.60235 -0.587503
                      CHANNELS 6 Xposition Yposition Zposition Zrotation Xrotation Yrotation
                      JOINT RightMiddle3
                      {
                        OFFSET -0.341001 2.3347 -0.28309
                        CHANNELS 6 Xposition Yposition Zposition Zrotation Xrotation Yrotation
                        JOINT RightMiddle4
                        {
                          OFFSET -0.346575 2.31405 -0.275466
                          CHANNELS 6 Xposition Yposition Zposition Zrotation Xrotation Yrotation
                          End Site
                          {
                            OFFSET 0 0 0
                          }
                        }
                      }
                    }
                  }
                  JOINT RightRing1
                  {
                    OFFSET -0.0625504 2.37332 -2.33089
                    CHANNELS 6 Xposition Yposition Zposition Zrotation Xrotation Yrotation
                    JOINT RightRing2
                    {
                      OFFSET -0.399735 3.0657 -0.719164
                      CHANNELS 6 Xposition Yposition Zposition Zrotation Xrotation Yrotation
                      JOINT RightRing3
                      {
                        OFFSET -0.365428 2.04692 -0.45945
                        CHANNELS 6 Xposition Yposition Zposition Zrotation Xrotation Yrotation
                        JOINT RightRing4
                        {
                          OFFSET -0.433271 2.26643 -0.502695
                          CHANNELS 6 Xposition Yposition Zposition Zrotation Xrotation Yrotation
                          End Site
                          {
                            OFFSET 0 0 0
                          }
                        }
                      }
                    }
                  }
                  JOINT RightPinky1
                  {
                    OFFSET -1.16155 1.37962 -3.95045
                    CHANNELS 6 Xposition Yposition Zposition Zrotation Xrotation Yrotation
                    JOINT RightPinky2
                    {
                      OFFSET -0.499453 2.25679 -1.05166
                      CHANNELS 6 Xposition Yposition Zposition Zrotation Xrotation Yrotation
                      JOINT RightPinky3
                      {
                        OFFSET -0.354971 1.77652 -0.736868
                        CHANNELS 6 Xposition Yposition Zposition Zrotation Xrotation Yrotation
                        JOINT RightPinky4
                        {
                          OFFSET -0.27668 1.51903 -0.566123
                          CHANNELS 6 Xposition Yposition Zposition Zrotation Xrotation Yrotation
                          End Site
                          {
                            OFFSET 0 0 0
                          }
                        }
                      }
                    }
                  }
                  JOINT RightThumb1
                  {
                    OFFSET -1.30262 -3.14946 4.2439
                    CHANNELS 6 Xposition Yposition Zposition Zrotation Xrotation Yrotation
                    JOINT RightThumb2
                    {
                      OFFSET -0.533331 2.59749 0.985526
                      CHANNELS 6 Xposition Yposition Zposition Zrotation Xrotation Yrotation
                      JOINT RightThumb3
                      {
                        OFFSET -0.666495 2.33388 1.18969
                        CHANNELS 6 Xposition Yposition Zposition Zrotation Xrotation Yrotation
                        JOINT RightThumb4
                        {
                          OFFSET -0.725011 1.80197 1.26029
                          CHANNELS 6 Xposition Yposition Zposition Zrotation Xrotation Yrotation
                          End Site
                          {
                            OFFSET 0 0 0
                          }
                        }
                      }
                    }
                  }
                }
              }
            }
          }
        }
      }
    }
  }
  JOINT bodyNormal
  {
    OFFSET -4.36515e-05 0 20
    CHANNELS 6 Xposition Yposition Zposition Zrotation Xrotation Yrotation
    End Site
    {
      OFFSET 0 0 0
    }
  }
}
MOTION
Frames: 2
Frame Time: 0.033333
76.715897 56.583401 37.679798 -27.885401 -0.545358 -88.884201 8.021040 -5.914400 -1.456050 4.565580 -52.726898 10.935700 -0.000019 -41.000000 -0.000000 179.988998 88.797997 -179.979996 -0.000017 -38.000000 -2.738600 -41.237301 -0.663703 -11.231900 0.224772 -4.500000 8.671940 0.000557 5.505920 -0.021338 -8.021040 -5.914400 -1.456050 -6.593210 -52.511200 -6.854510 -0.000019 -41.000000 -0.000000 -179.699005 89.679199 179.705002 -0.000017 -38.000000 -2.818230 17.881500 -12.978200 -2.622310 -0.202579 -4.500000 8.671940 -0.003298 1.395380 0.010783 0.000004 8.800000 0.000000 0.378532 43.331501 6.969430 0.000005 8.800000 -1.002650 0.504671 2.611720 -2.333970 0.000005 8.800000 -1.421520 0.629458 2.848240 -2.401930 0.000010 18.000000 -2.548880 -4.148690 -5.992580 3.791500 0.000003 9.324550 2.009430 1.803070 -7.318010 -2.204650 3.310290 5.955390 8.753160 0.000000 -0.000000 0.000000 -0.003937 0.014268 1.525400 0.000000 0.000000 0.000000 -3.174680 5.975810 8.753320 0.000000 -0.000000 0.000000 0.003930 0.014000 1.525400 0.000000 0.000000 -0.000000 -0.160060 14.407400 2.979330 -0.000000 -0.000000 0.000000 -0.026836 1.898010 2.155780 -0.000000 -0.000000 -0.000000 -0.231067 -6.435680 8.936130 0.000000 -0.000000 0.000000 6.253750 13.414100 -2.245360 -106.420998 12.689600 0.240951 -0.000000 12.000000 -2.471160 -55.790699 -2.760500 21.064899 0.000000 26.000000 0.000012 -165.175995 84.079498 156.298996 0.000000 23.000000 0.000011 -0.232798 -3.965950 87.396797 -0.000000 10.000000 0.000005 -0.000000 -0.000000 -0.000000 0.197285 1.219300 2.405320 -4.252990 -8.929320 0.992460 0.226043 2.661910 -0.146383 -11.193300 2.206600 -0.761309 0.246094 2.715960 -0.189681 -12.249800 2.273360 -0.492262 0.183211 2.254240 -0.102542 -0.000007 0.000001 -0.000010 -0.398519 1.717900 -0.061746 -10.967000 -0.858119 -1.131510 -0.080403 3.321920 -0.349908 -8.143460 1.412530 -0.748714 0.095753 2.211900 -0.214092 -10.946200 1.907850 -0.964660 0.131484 2.416940 -0.230538 0.000024 0.000005 0.000015 -0.419868 1.249450 -1.874640 -17.750299 8.272630 -3.197110 -0.213007 2.867030 -0.801583 -1.015910 0.137773 -0.252876 -0.089497 2.051560 -0.524940 -0.357124 0.420208 -0.162164 -0.009019 2.255580 -0.508040 -0.000001 0.000003 0.000000 -0.329974 0.479519 -4.136840 -8.316630 12.863600 0.023426 -0.160157 2.500790 -0.988666 -10.072300 1.576720 -2.749630 -0.116020 1.977970 -0.579049 -8.552340 0.991977 -2.614790 -0.084326 1.420310 -0.435157 -0.000021 -0.000005 0.000001 3.196200 -4.982370 3.669180 37.425400 19.124300 -4.440580 1.030930 2.584040 0.743119 -5.503240 -34.510899 15.055300 1.059130 2.624870 0.715956 -4.622350 -46.541500 20.722099 0.712656 2.070500 0.965941 -0.000014 -0.000012 0.000003 -6.253730 13.414100 -2.245360 106.698997 16.717199 -9.857300 -0.000000 12.000000 -2.343870 59.607300 3.378210 1.145930 0.000000 26.000000 -0.000012 134.975998 85.658600 -129.544006 0.000000 23.000000 -0.000011 17.566900 7.007120 -88.413803 0.000000 8.000000 -0.000004 0.000000 0.000000 -0.000000 0.334777 2.367790 1.952090 13.561600 -10.950500 -0.220347 -0.269286 2.808450 -0.111098 18.924999 2.229670 0.629348 -0.301989 3.121650 -0.129913 15.040500 1.743580 0.551043 -0.183845 1.905630 -0.078089 0.000000 0.000030 -0.000005 0.470980 2.722810 -0.481065 22.185400 -1.869590 2.438410 -0.273289 3.602350 -0.587503 8.631290 1.125830 1.116960 -0.341001 2.334700 -0.283090 10.226400 1.550370 1.308120 -0.346575 2.314050 -0.275466 -0.000016 -0.000013 0.000015 -0.062550 2.373320 -2.330890 15.851400 5.806030 2.220480 -0.399735 3.065700 -0.719164 7.204590 0.918876 1.709180 -0.365428 2.046920 -0.459450 9.321530 1.240540 2.179360 -0.433271 2.266430 -0.502695 -0.000014 0.000007 -0.000008 -1.161550 1.379620 -3.950450 -3.854960 13.578400 1.300480 -0.499453 2.256790 -1.051660 15.771900 2.259520 6.586180 -0.354971 1.776520 -0.736868 13.254000 0.880517 5.121960 -0.276680 1.519030 -0.566123 -0.000000 -0.000001 -0.000005 -1.302620 -3.149460 4.243900 -4.265320 4.633120 3.759910 -0.533331 2.597490 0.985526 -0.069250 -31.217400 -10.613400 -0.666495 2.333880 1.189690 -1.984680 -31.883801 -15.213300 -0.725011 1.801970 1.260290 -0.000012 -0.000001 -0.000009 -0.000044 0.000000 20.000000 -0.000000 0.000000 -0.000000 
76.535400 56.712299 37.729000 -26.953100 -0.359678 -88.838699 8.021040 -5.914400 -1.456050 4.663820 -53.483700 11.266500 -0.000019 -41.000000 -0.000000 179.988998 87.901199 -179.979004 -0.000017 -38.000000 -2.738600 -41.699402 -1.386570 -10.946000 0.224772 -4.500000 8.671940 0.001095 6.628260 -0.022401 -8.021040 -5.914400 -1.456050 -6.942010 -53.200500 -7.742400 -0.000019 -41.000000 -0.000000 -179.776001 89.237198 179.781998 -0.000017 -38.000000 -2.818230 21.368900 -12.779500 0.748885 -0.202579 -4.500000 8.671940 -0.003359 1.716470 0.010814 0.000004 8.800000 0.000000 0.730129 43.199902 6.709330 0.000005 8.800000 -1.002650 0.459262 2.601660 -2.365240 0.000005 8.800000 -1.421520 0.792706 1.994490 -2.390530 0.000010 18.000000 -2.548880 -4.165130 -6.159890 4.224930 0.000003 9.324550 2.009430 1.747090 -6.431880 -1.847760 3.310290 5.955390 8.753160 0.000000 -0.000000 0.000000 -0.003937 0.014268 1.525400 0.000000 -0.000000 0.000000 -3.174680 5.975810 8.753320 0.000000 -0.000000 0.000000 0.003930 0.014000 1.525400 0.000000 -0.000000 0.000000 -0.160060 14.407400 2.979330 0.000000 -0.000000 0.000000 -0.026836 1.898010 2.155780 -0.000000 -0.000000 -0.000000 -0.231067 -6.435680 8.936130 -0.000000 -0.000000 0.000000 6.253750 13.414100 -2.245360 -105.537003 11.999200 -0.188928 -0.000000 12.000000 -2.471160 -57.423599 -3.751350 20.984699 0.000000 26.000000 0.000012 -167.391006 83.082397 158.606995 0.000000 23.000000 0.000011 -2.804120 -5.760070 84.432503 -0.000000 10.000000 0.000005 -0.000000 -0.000000 -0.000000 0.197285 1.219300 2.405320 -4.059930 -8.910470 1.019930 0.226043 2.661910 -0.146383 -11.142200 2.196210 -0.759676 0.246094 2.715960 -0.189681 -12.196000 2.262650 -0.491176 0.183211 2.254240 -0.102542 -0.000007 0.000001 -0.000010 -0.398519 1.717900 -0.061746 -10.899500 -0.774261 -1.135310 -0.080403 3.321920 -0.349908 -8.003920 1.387450 -0.737584 0.095753 2.211900 -0.214092 -10.811100 1.883090 -0.955047 0.131484 2.416940 -0.230538 0.000024 0.000005 0.000015 -0.419868 1.249450 -1.874640 -17.637501 8.317630 -3.188860 -0.213007 2.867030 -0.801583 -0.977898 0.132538 -0.243451 -0.089497 2.051560 -0.524940 -0.282724 0.408602 -0.145940 -0.009019 2.255580 -0.508040 -0.000001 0.000003 0.000000 -0.329974 0.479519 -4.136840 -8.302150 12.944100 0.023380 -0.160157 2.500790 -0.988666 -9.923310 1.549830 -2.710930 -0.116020 1.977970 -0.579049 -8.412430 0.966681 -2.575080 -0.084326 1.420310 -0.435157 -0.000021 -0.000005 0.000001 3.196200 -4.982370 3.669180 37.336800 18.879801 -4.296560 1.030930 2.584040 0.743119 -5.494850 -34.214901 14.922700 1.059130 2.624870 0.715956 -4.655760 -46.222599 20.552099 0.712656 2.070500 0.965941 -0.000014 -0.000012 0.000003 -6.253730 13.414100 -2.245360 106.162003 15.987000 -9.743520 -0.000000 12.000000 -2.343870 61.145802 2.825830 1.094710 -0.000000 26.000000 -0.000012 139.233002 85.286400 -133.792007 -0.000000 23.000000 -0.000011 18.593201 6.614680 -87.882698 0.000000 8.000000 -0.000004 0.000000 0.000000 -0.000000 0.334777 2.367790 1.952090 13.567500 -10.937000 -0.220664 -0.269286 2.808450 -0.111098 18.665100 2.197900 0.625583 -0.301989 3.121650 -0.129913 14.833000 1.718350 0.546289 -0.183845 1.905630 -0.078089 0.000000 0.000030 -0.000005 0.470980 2.722810 -0.481065 22.061399 -1.851550 2.436590 -0.273289 3.602350 -0.587503 8.557970 1.115560 1.108190 -0.341001 2.334700 -0.283090 10.166700 1.541470 1.301520 -0.346575 2.314050 -0.275466 -0.000016 -0.000013 0.000015 -0.062550 2.373320 -2.330890 15.843600 5.830340 2.226640 -0.399735 3.065700 -0.719164 7.103860 0.904539 1.686060 -0.365428 2.046920 -0.459450 9.218910 1.225000 2.156490 -0.433271 2.266430 -0.502695 -0.000014 0.000007 -0.000008 -1.161550 1.379620 -3.950450 -3.684240 13.586600 1.335660 -0.499453 2.256790 -1.051660 15.565800 2.218160 6.503940 -0.354971 1.776520 -0.736868 13.050900 0.842678 5.044210 -0.276680 1.519030 -0.566123 -0.000000 -0.000001 -0.000005 -1.302620 -3.149460 4.243900 -4.347920 4.517460 3.720550 -0.533331 2.597490 0.985526 -0.075503 -31.273500 -10.635300 -0.666495 2.333880 1.189690 -1.995870 -31.941700 -15.247200 -0.725011 1.801970 1.260290 -0.000012 -0.000001 -0.000009 -0.000044 0.000000 20.000000 0.000000 -0.000000 -0.000000 
